<?xml version="1.0" encoding="UTF-8" standalone="no"?>
<!-- Generator: Adobe Illustrator 15.1.0, SVG Export Plug-In . SVG Version: 6.00 Build 0)  -->

<svg
   xmlns:dc="http://purl.org/dc/elements/1.1/"
   xmlns:cc="http://creativecommons.org/ns#"
   xmlns:rdf="http://www.w3.org/1999/02/22-rdf-syntax-ns#"
   xmlns:svg="http://www.w3.org/2000/svg"
   xmlns="http://www.w3.org/2000/svg"
   xmlns:sodipodi="http://sodipodi.sourceforge.net/DTD/sodipodi-0.dtd"
   xmlns:inkscape="http://www.inkscape.org/namespaces/inkscape"
   version="1.1"
   id="Layer_1"
   x="0px"
   y="0px"
   width="171.45"
   height="171.45"
   viewBox="0 0 171.45 171.44999"
   enable-background="new 0 0 158 157.563"
   xml:space="preserve"
   inkscape:version="0.91 r13725"
   sodipodi:docname="online-konsult-hover.svg"><metadata
   id="metadata111"><rdf:RDF><cc:Work
       rdf:about=""><dc:format>image/svg+xml</dc:format><dc:type
         rdf:resource="http://purl.org/dc/dcmitype/StillImage" /><dc:title></dc:title></cc:Work></rdf:RDF></metadata><defs
   id="defs109">
	
	
	

		
		
	</defs><sodipodi:namedview
   pagecolor="#ffffff"
   bordercolor="#666666"
   borderopacity="1"
   objecttolerance="10"
   gridtolerance="10"
   guidetolerance="10"
   inkscape:pageopacity="0"
   inkscape:pageshadow="2"
   inkscape:window-width="1920"
   inkscape:window-height="1138"
   id="namedview107"
   showgrid="false"
   showguides="true"
   inkscape:guide-bbox="true"
   inkscape:zoom="2.1182282"
   inkscape:cx="200.81231"
   inkscape:cy="63.40948"
   inkscape:window-x="-8"
   inkscape:window-y="-8"
   inkscape:window-maximized="1"
   inkscape:current-layer="Layer_1"
   fit-margin-top="0"
   fit-margin-left="0"
   fit-margin-right="0"
   fit-margin-bottom="0"><sodipodi:guide
     position="16.690996,-108.8203"
     orientation="1,0"
     id="guide4494" /><sodipodi:guide
     position="155.56008,99.483318"
     orientation="0,1"
     id="guide4496" /><sodipodi:guide
     position="127.51921,212.98209"
     orientation="0,1"
     id="guide4498" /><sodipodi:guide
     position="178.21498,28.802636"
     orientation="0,1"
     id="guide4500" /></sodipodi:namedview>
<rect
   style="clip-rule:evenodd;opacity:0.85;fill:#fbb03c;fill-rule:evenodd"
   y="0"
   x="0"
   id="rect5"
   height="171.45"
   width="171.45" /><g
   id="g9"
   transform="matrix(1.1492987,0,0,1.1538571,-7.6002103,-6.1231014)">
			<g
   id="g11">
				<path
   d="m 22.85,107.968 c 0.779,-0.655 1.684,-0.975 2.715,-0.975 1.029,0 1.795,0.319 2.297,0.975 0.514,0.64 0.654,1.503 0.443,2.574 -0.223,1.071 -0.723,1.935 -1.488,2.575 -0.764,0.64 -1.668,0.96 -2.713,0.96 -1.045,0 -1.809,-0.32 -2.326,-0.96 -0.502,-0.641 -0.639,-1.504 -0.418,-2.575 0.224,-1.071 0.726,-1.92 1.49,-2.574 z m 3.982,2.574 c 0.207,-1.071 0.195,-1.906 -0.043,-2.478 -0.236,-0.57 -0.67,-0.862 -1.268,-0.862 -0.598,0 -1.141,0.292 -1.627,0.876 -0.488,0.57 -0.836,1.393 -1.045,2.464 -0.43,2.129 0.111,3.326 1.293,3.326 1.227,0.001 2.256,-1.197 2.69,-3.326 z"
   id="path13"
   inkscape:connector-curvature="0"
   style="fill:#27160c" />
				<path
   d="m 29.166,107.884 c 0.738,-0.599 1.408,-0.904 1.977,-0.904 0.543,0 0.822,0.306 0.711,0.904 l -0.141,0.445 0.029,0.042 c 0.777,-0.891 1.795,-1.378 2.617,-1.378 0.85,0 1.307,0.474 1.404,1.405 0.82,-0.891 1.906,-1.405 2.729,-1.405 1.238,0 1.684,0.794 1.348,2.394 l -0.748,3.618 c -0.07,0.349 0.025,0.516 0.277,0.516 0.209,0 0.502,-0.153 0.848,-0.459 l 0.07,0.11 c -0.723,0.599 -1.377,0.905 -1.963,0.905 -0.541,0 -0.834,-0.307 -0.709,-0.905 l 0.736,-3.549 c 0.293,-1.434 0.057,-2.143 -0.723,-2.143 -0.516,0 -1.268,0.459 -1.879,1.238 0,0.236 -0.014,0.46 -0.057,0.668 l -0.945,4.62 -1.267,0 -0.15,-0.181 0.875,-4.203 c 0.291,-1.434 0.07,-2.143 -0.682,-2.143 -0.543,0 -1.266,0.5 -1.865,1.322 l -1.057,5.204 -1.268,0 -0.152,-0.181 1.197,-5.775 c 0.068,-0.348 -0.029,-0.516 -0.266,-0.516 -0.223,0 -0.514,0.153 -0.863,0.46 l -0.083,-0.109 z"
   id="path15"
   inkscape:connector-curvature="0"
   style="fill:#27160c" />
				<path
   d="m 49.439,113.562 c -0.6,0.349 -1.309,0.516 -2.158,0.516 -2.211,0 -3.033,-1.309 -2.574,-3.521 0.459,-2.227 1.838,-3.563 4.01,-3.563 1.559,0 2.449,0.695 2.225,1.753 -0.178,0.85 -0.945,1.462 -2.045,1.643 1.184,0.167 1.797,0.835 1.615,1.781 -0.125,0.571 -0.475,1.043 -1.073,1.391 z m -0.279,-1.419 c 0.211,-1.072 -0.236,-1.615 -1.334,-1.615 l -1.672,0 c -0.486,2.27 -0.137,3.341 1.1,3.341 0.934,0 1.684,-0.613 1.906,-1.726 z m -2.965,-1.865 1.67,0 c 0.922,0 1.49,-0.515 1.715,-1.531 0.209,-1.002 -0.168,-1.544 -1.002,-1.544 -1.129,0 -1.922,1.029 -2.383,3.075 z"
   id="path17"
   inkscape:connector-curvature="0"
   style="fill:#27160c" />
				<path
   d="m 53.438,107.968 c 0.779,-0.655 1.684,-0.975 2.715,-0.975 1.029,0 1.795,0.319 2.295,0.975 0.516,0.64 0.656,1.503 0.445,2.574 -0.223,1.071 -0.723,1.935 -1.49,2.575 -0.764,0.64 -1.668,0.96 -2.713,0.96 -1.045,0 -1.809,-0.32 -2.324,-0.96 -0.5,-0.641 -0.639,-1.504 -0.418,-2.575 0.224,-1.071 0.726,-1.92 1.49,-2.574 z m 3.982,2.574 c 0.207,-1.071 0.193,-1.906 -0.043,-2.478 -0.236,-0.57 -0.67,-0.862 -1.268,-0.862 -0.598,0 -1.141,0.292 -1.627,0.876 -0.488,0.57 -0.838,1.393 -1.045,2.464 -0.432,2.129 0.111,3.326 1.293,3.326 1.227,0.001 2.256,-1.197 2.69,-3.326 z"
   id="path19"
   inkscape:connector-curvature="0"
   style="fill:#27160c" />
				<path
   d="m 59.754,107.884 c 0.738,-0.599 1.406,-0.904 1.977,-0.904 0.543,0 0.822,0.306 0.711,0.904 l -0.127,0.432 0.029,0.042 c 0.82,-0.877 1.977,-1.364 2.881,-1.364 1.35,0 1.836,0.904 1.516,2.394 l -0.736,3.618 c -0.07,0.349 0.027,0.516 0.264,0.516 0.209,0 0.486,-0.153 0.863,-0.459 l 0.07,0.11 c -0.738,0.599 -1.404,0.905 -1.977,0.905 -0.543,0 -0.822,-0.307 -0.695,-0.905 l 0.723,-3.549 c 0.293,-1.434 0,-2.143 -0.877,-2.143 -0.652,0 -1.502,0.515 -2.115,1.28 l -1.072,5.246 -1.266,0 -0.152,-0.181 1.197,-5.775 c 0.066,-0.348 -0.029,-0.516 -0.266,-0.516 -0.223,0 -0.516,0.153 -0.863,0.46 l -0.085,-0.111 z"
   id="path21"
   inkscape:connector-curvature="0"
   style="fill:#27160c" />
				<path
   d="m 66.758,116.791 0.029,-0.139 0.861,-0.265 1.727,-8.336 c 0.068,-0.348 -0.029,-0.516 -0.266,-0.516 -0.223,0 -0.514,0.153 -0.863,0.46 l -0.084,-0.111 c 0.738,-0.599 1.408,-0.904 1.977,-0.904 0.545,0 0.822,0.306 0.711,0.904 l -0.111,0.348 0.027,0.042 c 0.807,-0.849 1.697,-1.28 2.686,-1.28 1.658,0 2.256,1.322 1.822,3.382 -0.486,2.352 -1.988,3.702 -4.104,3.702 -0.625,0 -1.143,-0.125 -1.516,-0.376 l -0.559,2.686 1.184,0.265 -0.027,0.139 -3.494,0 z m 2.937,-3.298 c 0.402,0.25 0.818,0.376 1.266,0.376 1.336,0 2.354,-1.197 2.797,-3.271 0.391,-1.879 -0.027,-3.117 -1.029,-3.117 -0.695,0 -1.377,0.403 -2.045,1.197 l -0.989,4.815 z"
   id="path23"
   inkscape:connector-curvature="0"
   style="fill:#27160c" />
				<path
   d="m 78.105,107.968 c 0.779,-0.655 1.684,-0.975 2.713,-0.975 1.031,0 1.795,0.319 2.295,0.975 0.518,0.64 0.656,1.503 0.447,2.574 -0.223,1.071 -0.723,1.935 -1.49,2.575 -0.766,0.64 -1.67,0.96 -2.715,0.96 -1.041,0 -1.809,-0.32 -2.322,-0.96 -0.502,-0.641 -0.639,-1.504 -0.418,-2.575 0.223,-1.071 0.725,-1.92 1.49,-2.574 z m 3.979,2.574 c 0.209,-1.071 0.195,-1.906 -0.039,-2.478 -0.238,-0.57 -0.67,-0.862 -1.268,-0.862 -0.6,0 -1.143,0.292 -1.631,0.876 -0.486,0.57 -0.832,1.393 -1.041,2.464 -0.434,2.129 0.111,3.326 1.293,3.326 1.225,0.001 2.256,-1.197 2.686,-3.326 z"
   id="path25"
   inkscape:connector-curvature="0"
   style="fill:#27160c" />
				<path
   d="m 89.91,107.564 c -0.318,-0.236 -0.682,-0.361 -1.059,-0.361 -1.236,0 -2.225,1.21 -2.615,3.117 -0.445,2.102 0.182,3.34 1.865,3.34 0.809,0 1.531,-0.278 2.186,-0.835 l 0.125,0.167 c -0.877,0.724 -1.865,1.086 -2.979,1.086 -2.242,0 -3.174,-1.364 -2.729,-3.521 0.459,-2.213 1.99,-3.563 4.174,-3.563 0.766,0 1.395,0.167 1.895,0.487 0.516,0.319 0.711,0.751 0.6,1.308 -0.111,0.571 -0.531,0.891 -1.031,0.891 -0.516,0 -0.793,-0.362 -0.682,-0.918 l 0.25,-1.198 z"
   id="path27"
   inkscape:connector-curvature="0"
   style="fill:#27160c" />
				<path
   d="m 99.324,113.172 c -0.74,0.599 -1.406,0.905 -1.977,0.905 -0.545,0 -0.85,-0.307 -0.684,-0.905 l 0.084,-0.32 -0.027,-0.041 c -0.822,0.849 -1.727,1.267 -2.729,1.267 -1.627,0 -2.227,-1.322 -1.795,-3.368 0.488,-2.408 2.047,-3.716 4.428,-3.716 0.611,0 1.195,0.111 1.752,0.334 l 0.807,-0.376 0.154,0.195 -1.211,5.858 c -0.07,0.349 0.027,0.516 0.262,0.516 0.211,0 0.488,-0.153 0.865,-0.459 l 0.071,0.11 z m -1.533,-5.594 c -0.416,-0.25 -0.834,-0.375 -1.264,-0.375 -1.352,0 -2.367,1.196 -2.813,3.27 -0.377,1.879 0.043,3.132 1.098,3.132 0.67,0 1.338,-0.403 1.99,-1.21 l 0.989,-4.817 z"
   id="path29"
   inkscape:connector-curvature="0"
   style="fill:#27160c" />
				<path
   d="m 109.543,108.218 c 0.584,-2.84 -2.031,-3.925 -3.742,-4.092 l 0.277,-0.236 c 0.627,0.069 1.018,0.125 1.629,0.278 0.625,0.152 1.016,0.32 1.516,0.64 1.17,0.724 1.852,2.102 1.295,4.774 -0.598,2.992 -2.129,4.495 -4.344,4.495 -1.041,0 -1.82,-0.32 -2.322,-0.946 -0.486,-0.641 -0.625,-1.489 -0.404,-2.562 0.223,-1.085 0.711,-1.948 1.477,-2.602 0.764,-0.655 1.654,-0.975 2.672,-0.975 1.043,0 1.725,0.501 1.893,1.225 l 0.053,0 z m -2.004,-1.015 c -1.17,0 -2.172,1.183 -2.615,3.34 -0.434,2.129 0.068,3.326 1.25,3.326 1.184,0 2.215,-1.197 2.646,-3.326 0.43,-2.158 -0.097,-3.34 -1.281,-3.34 z"
   id="path31"
   inkscape:connector-curvature="0"
   style="fill:#27160c" />
				<path
   d="m 113.037,107.968 c 0.779,-0.655 1.684,-0.975 2.715,-0.975 1.029,0 1.795,0.319 2.297,0.975 0.514,0.64 0.654,1.503 0.443,2.574 -0.221,1.071 -0.723,1.935 -1.488,2.575 -0.764,0.64 -1.668,0.96 -2.713,0.96 -1.045,0 -1.809,-0.32 -2.326,-0.96 -0.5,-0.641 -0.639,-1.504 -0.416,-2.575 0.224,-1.071 0.724,-1.92 1.488,-2.574 z m 3.983,2.574 c 0.209,-1.071 0.195,-1.906 -0.043,-2.478 -0.236,-0.57 -0.668,-0.862 -1.268,-0.862 -0.598,0 -1.139,0.292 -1.627,0.876 -0.486,0.57 -0.836,1.393 -1.045,2.464 -0.43,2.129 0.111,3.326 1.295,3.326 1.227,0.001 2.254,-1.197 2.688,-3.326 z"
   id="path33"
   inkscape:connector-curvature="0"
   style="fill:#27160c" />
				<path
   d="m 27.512,123.304 c 0.584,-2.84 -2.031,-3.926 -3.742,-4.092 l 0.277,-0.237 c 0.627,0.07 1.018,0.125 1.629,0.278 0.625,0.153 1.016,0.32 1.516,0.641 1.17,0.724 1.852,2.101 1.295,4.773 -0.6,2.992 -2.129,4.495 -4.344,4.495 -1.041,0 -1.822,-0.32 -2.322,-0.945 -0.488,-0.641 -0.625,-1.49 -0.404,-2.562 0.223,-1.086 0.711,-1.948 1.477,-2.603 0.764,-0.655 1.654,-0.975 2.672,-0.975 1.043,0 1.725,0.502 1.893,1.226 l 0.053,0 z m -2.004,-1.016 c -1.17,0 -2.172,1.184 -2.615,3.34 -0.434,2.13 0.068,3.326 1.25,3.326 1.184,0 2.215,-1.196 2.646,-3.326 0.43,-2.157 -0.098,-3.34 -1.281,-3.34 z"
   id="path35"
   inkscape:connector-curvature="0"
   style="fill:#27160c" />
				<path
   d="m 29.266,122.969 c 0.738,-0.599 1.408,-0.904 1.977,-0.904 0.543,0 0.822,0.306 0.711,0.904 l -0.779,3.758 c -0.279,1.128 -0.014,1.963 0.82,1.963 0.67,0 1.488,-0.46 2.172,-1.295 l 1.086,-5.261 1.252,0 0.152,0.195 -1.195,5.762 c -0.07,0.348 0.025,0.515 0.277,0.515 0.209,0 0.502,-0.153 0.848,-0.459 l 0.07,0.111 c -0.723,0.598 -1.377,0.904 -1.977,0.904 -0.514,0 -0.82,-0.307 -0.695,-0.904 l 0.125,-0.418 -0.027,-0.041 c -0.834,0.891 -1.906,1.363 -2.811,1.363 -1.324,0 -1.865,-0.862 -1.586,-2.199 l 0.793,-3.827 c 0.068,-0.348 -0.029,-0.515 -0.266,-0.515 -0.223,0 -0.514,0.153 -0.863,0.459 l -0.084,-0.111 z"
   id="path37"
   inkscape:connector-curvature="0"
   style="fill:#27160c" />
				<path
   d="m 43.76,123.819 c -0.182,0.849 -0.932,1.489 -2.033,1.67 1.184,0.167 1.781,0.821 1.602,1.781 -0.236,1.169 -1.488,1.893 -3.383,1.893 -0.75,0 -1.375,-0.125 -1.879,-0.376 -0.502,-0.264 -0.709,-0.612 -0.611,-1.071 0.096,-0.445 0.459,-0.752 0.891,-0.752 0.445,0 0.695,0.334 0.584,0.892 l -0.166,0.807 c 0.334,0.181 0.711,0.278 1.113,0.278 1.043,0 1.752,-0.598 1.977,-1.712 0.223,-1.071 -0.238,-1.614 -1.379,-1.614 -0.277,0 -0.584,0.014 -0.934,0.042 l 0.07,-0.334 c 0.334,0.027 0.627,0.042 0.877,0.042 0.988,0 1.574,-0.501 1.783,-1.518 0.207,-1.016 -0.195,-1.544 -1.045,-1.544 -0.361,0 -0.738,0.096 -1.113,0.278 l -0.152,0.807 c -0.127,0.557 -0.5,0.891 -0.961,0.891 -0.404,0 -0.668,-0.306 -0.557,-0.752 0.096,-0.459 0.432,-0.808 1.018,-1.058 0.598,-0.264 1.25,-0.39 1.959,-0.39 1.684,0 2.559,0.682 2.339,1.74 z"
   id="path39"
   inkscape:connector-curvature="0"
   style="fill:#27160c" />
				<path
   d="m 52.016,128.258 c -0.736,0.598 -1.404,0.904 -1.977,0.904 -0.541,0 -0.848,-0.307 -0.682,-0.904 l 0.084,-0.32 -0.027,-0.041 c -0.82,0.849 -1.725,1.266 -2.729,1.266 -1.627,0 -2.227,-1.322 -1.795,-3.367 0.486,-2.408 2.047,-3.717 4.426,-3.717 0.613,0 1.197,0.111 1.754,0.334 l 0.807,-0.376 0.152,0.195 -1.209,5.859 c -0.068,0.348 0.029,0.515 0.264,0.515 0.209,0 0.488,-0.153 0.863,-0.459 l 0.069,0.111 z m -1.53,-5.594 c -0.418,-0.251 -0.836,-0.376 -1.268,-0.376 -1.35,0 -2.365,1.197 -2.811,3.271 -0.375,1.879 0.041,3.132 1.1,3.132 0.67,0 1.336,-0.404 1.99,-1.211 l 0.989,-4.816 z"
   id="path41"
   inkscape:connector-curvature="0"
   style="fill:#27160c" />
				<path
   d="m 52.836,122.969 c 0.736,-0.599 1.406,-0.904 1.977,-0.904 0.543,0 0.82,0.306 0.709,0.904 l -0.779,3.758 c -0.277,1.128 -0.014,1.963 0.824,1.963 0.666,0 1.488,-0.46 2.168,-1.295 l 1.086,-5.261 1.252,0 0.154,0.195 -1.195,5.762 c -0.07,0.348 0.027,0.515 0.275,0.515 0.209,0 0.502,-0.153 0.85,-0.459 l 0.07,0.111 c -0.725,0.598 -1.377,0.904 -1.977,0.904 -0.516,0 -0.822,-0.307 -0.695,-0.904 l 0.125,-0.418 -0.027,-0.041 c -0.836,0.891 -1.908,1.363 -2.813,1.363 -1.32,0 -1.865,-0.862 -1.586,-2.199 l 0.793,-3.827 c 0.07,-0.348 -0.027,-0.515 -0.264,-0.515 -0.223,0 -0.516,0.153 -0.863,0.459 l -0.084,-0.111 z m 5.664,-2.881 c 0.07,-0.459 0.447,-0.766 0.877,-0.766 0.432,0 0.643,0.307 0.572,0.711 -0.098,0.402 -0.404,0.723 -0.918,0.945 -0.518,0.223 -1.059,0.334 -1.617,0.334 -0.943,0 -2.17,-0.389 -1.988,-1.294 0.096,-0.404 0.432,-0.696 0.863,-0.696 0.43,0 0.639,0.307 0.57,0.766 l -0.182,0.836 c 0.223,0.11 0.488,0.167 0.779,0.167 0.307,0 0.6,-0.057 0.861,-0.167 l 0.183,-0.836 z"
   id="path43"
   inkscape:connector-curvature="0"
   style="fill:#27160c" />
				<path
   d="m 62.678,129.093 -1.268,0 -0.152,-0.181 1.197,-5.776 c 0.068,-0.348 -0.029,-0.515 -0.266,-0.515 -0.221,0 -0.514,0.153 -0.863,0.459 l -0.084,-0.111 c 0.74,-0.599 1.408,-0.904 1.977,-0.904 0.545,0 0.822,0.306 0.713,0.904 l -0.502,2.408 3.117,0 0.668,-3.243 1.252,0 0.152,0.195 -1.182,5.762 c -0.084,0.348 0,0.515 0.266,0.515 0.207,0 0.5,-0.153 0.846,-0.459 l 0.084,0.111 c -0.736,0.598 -1.404,0.904 -1.975,0.904 -0.543,0 -0.822,-0.307 -0.711,-0.904 l 0.545,-2.589 -3.119,0 -0.695,3.424 z"
   id="path45"
   inkscape:connector-curvature="0"
   style="fill:#27160c" />
				<path
   d="m 69.711,125.293 0.082,-0.417 3.117,0 -0.084,0.417 -3.115,0 z"
   id="path47"
   inkscape:connector-curvature="0"
   style="fill:#27160c" />
				<path
   d="m 73.961,122.969 c 0.738,-0.599 1.406,-0.904 1.979,-0.904 0.541,0 0.818,0.306 0.709,0.904 l -0.125,0.432 0.027,0.042 c 0.82,-0.877 1.977,-1.364 2.881,-1.364 1.35,0 1.838,0.905 1.518,2.394 l -0.738,3.619 c -0.07,0.348 0.027,0.515 0.266,0.515 0.207,0 0.486,-0.153 0.863,-0.459 l 0.066,0.111 c -0.736,0.598 -1.404,0.904 -1.975,0.904 -0.543,0 -0.822,-0.307 -0.697,-0.904 l 0.727,-3.549 c 0.289,-1.434 0,-2.144 -0.877,-2.144 -0.656,0 -1.506,0.515 -2.117,1.28 l -1.072,5.247 -1.266,0 -0.152,-0.181 1.195,-5.776 c 0.07,-0.348 -0.027,-0.515 -0.262,-0.515 -0.225,0 -0.518,0.153 -0.863,0.459 l -0.087,-0.111 z"
   id="path49"
   inkscape:connector-curvature="0"
   style="fill:#27160c" />
				<path
   d="m 80.963,131.876 0.029,-0.139 0.861,-0.265 1.727,-8.337 c 0.068,-0.348 -0.029,-0.515 -0.264,-0.515 -0.223,0 -0.516,0.153 -0.865,0.459 l -0.084,-0.111 c 0.74,-0.599 1.408,-0.904 1.977,-0.904 0.545,0 0.822,0.306 0.713,0.904 l -0.111,0.349 0.027,0.041 c 0.807,-0.849 1.697,-1.28 2.686,-1.28 1.656,0 2.254,1.322 1.822,3.382 -0.488,2.352 -1.99,3.702 -4.105,3.702 -0.625,0 -1.141,-0.125 -1.516,-0.376 l -0.557,2.687 1.182,0.265 -0.027,0.139 -3.495,0 z m 2.937,-3.297 c 0.404,0.25 0.82,0.375 1.266,0.375 1.336,0 2.354,-1.196 2.797,-3.271 0.391,-1.879 -0.025,-3.117 -1.027,-3.117 -0.695,0 -1.379,0.403 -2.047,1.197 l -0.989,4.816 z"
   id="path51"
   inkscape:connector-curvature="0"
   style="fill:#27160c" />
				<path
   d="m 92.311,123.053 c 0.779,-0.655 1.684,-0.975 2.713,-0.975 1.031,0 1.795,0.319 2.297,0.975 0.516,0.64 0.654,1.503 0.445,2.574 -0.221,1.072 -0.723,1.935 -1.488,2.575 -0.766,0.64 -1.67,0.96 -2.715,0.96 -1.043,0 -1.809,-0.32 -2.324,-0.96 -0.5,-0.641 -0.639,-1.503 -0.416,-2.575 0.222,-1.071 0.722,-1.919 1.488,-2.574 z m 3.98,2.574 c 0.209,-1.071 0.195,-1.906 -0.041,-2.477 -0.238,-0.57 -0.668,-0.863 -1.268,-0.863 -0.598,0 -1.141,0.293 -1.629,0.877 -0.486,0.57 -0.834,1.392 -1.043,2.463 -0.432,2.13 0.111,3.326 1.295,3.326 1.223,0.001 2.254,-1.196 2.686,-3.326 z"
   id="path53"
   inkscape:connector-curvature="0"
   style="fill:#27160c" />
				<path
   d="m 102.412,128.731 c 0.82,0 1.547,-0.278 2.199,-0.82 l 0.125,0.167 c -0.875,0.724 -1.879,1.085 -3.006,1.085 -1.156,0 -1.963,-0.32 -2.438,-0.96 -0.457,-0.654 -0.582,-1.503 -0.373,-2.547 0.223,-1.1 0.723,-1.963 1.488,-2.603 0.779,-0.655 1.738,-0.975 2.895,-0.975 1.516,0 2.42,0.612 2.158,1.851 -0.111,0.502 -0.307,0.808 -0.975,1.155 -0.668,0.347 -2.033,0.529 -4.078,0.529 -0.401,1.991 0.265,3.118 2.005,3.118 z m -1.963,-3.326 c 2.381,0 3.439,-0.403 3.66,-1.559 0.182,-0.877 -0.166,-1.559 -1.016,-1.559 -1.07,10e-4 -2.142,1.045 -2.644,3.118 z"
   id="path55"
   inkscape:connector-curvature="0"
   style="fill:#27160c" />
				<path
   d="m 106.041,122.969 c 0.736,-0.599 1.406,-0.904 1.977,-0.904 0.541,0 0.82,0.306 0.709,0.904 l -1.254,6.124 -1.264,0 -0.154,-0.181 1.197,-5.776 c 0.07,-0.348 -0.027,-0.515 -0.264,-0.515 -0.225,0 -0.516,0.153 -0.863,0.459 l -0.084,-0.111 z m 5.33,-0.486 c -0.291,0.069 -0.611,0.292 -0.988,0.641 -0.723,0.681 -1.156,1.336 -1.531,1.947 0.711,0.167 1.268,0.78 1.488,1.28 0.127,0.251 0.252,0.571 0.406,0.946 0.152,0.377 0.264,0.654 0.359,0.808 0.168,0.32 0.377,0.487 0.643,0.487 0.209,0 0.486,-0.153 0.848,-0.445 l 0.084,0.111 c -0.723,0.598 -1.336,0.891 -1.836,0.891 -0.545,0 -0.961,-0.32 -1.227,-0.975 -0.07,-0.181 -0.168,-0.473 -0.277,-0.904 -0.209,-0.849 -0.432,-1.405 -0.975,-1.685 l 0.277,-0.458 0.461,-0.738 c 0.123,-0.195 0.318,-0.445 0.557,-0.766 0.25,-0.319 0.484,-0.585 0.695,-0.779 0.445,-0.403 1.07,-0.766 1.588,-0.766 0.611,0 0.988,0.39 0.875,0.946 -0.098,0.46 -0.486,0.779 -0.945,0.779 -0.461,0 -0.697,-0.375 -0.6,-0.891 l 0.098,-0.429 z"
   id="path57"
   inkscape:connector-curvature="0"
   style="fill:#27160c" />
				<path
   d="m 113.553,122.969 c 0.738,-0.599 1.406,-0.904 1.975,-0.904 0.545,0 0.824,0.306 0.713,0.904 l -0.141,0.445 0.029,0.042 c 0.777,-0.891 1.795,-1.378 2.615,-1.378 0.85,0 1.309,0.474 1.406,1.406 0.82,-0.892 1.906,-1.406 2.729,-1.406 1.236,0 1.684,0.794 1.348,2.394 l -0.75,3.619 c -0.07,0.348 0.027,0.515 0.279,0.515 0.207,0 0.5,-0.153 0.848,-0.459 l 0.07,0.111 c -0.725,0.598 -1.379,0.904 -1.963,0.904 -0.541,0 -0.834,-0.307 -0.709,-0.904 l 0.736,-3.549 c 0.293,-1.434 0.057,-2.144 -0.723,-2.144 -0.516,0 -1.268,0.459 -1.879,1.238 0,0.237 -0.014,0.46 -0.057,0.668 l -0.945,4.621 -1.268,0 -0.152,-0.181 0.875,-4.203 c 0.293,-1.434 0.07,-2.144 -0.68,-2.144 -0.543,0 -1.268,0.501 -1.865,1.322 l -1.059,5.205 -1.268,0 -0.15,-0.181 1.195,-5.776 c 0.068,-0.348 -0.029,-0.515 -0.264,-0.515 -0.223,0 -0.516,0.153 -0.865,0.459 l -0.08,-0.109 z"
   id="path59"
   inkscape:connector-curvature="0"
   style="fill:#27160c" />
				<path
   d="m 133.021,128.258 c -0.74,0.598 -1.406,0.904 -1.977,0.904 -0.545,0 -0.852,-0.307 -0.684,-0.904 l 0.084,-0.32 -0.025,-0.041 c -0.824,0.849 -1.729,1.266 -2.73,1.266 -1.627,0 -2.227,-1.322 -1.795,-3.367 0.488,-2.408 2.047,-3.717 4.426,-3.717 0.613,0 1.197,0.111 1.752,0.334 l 0.809,-0.376 0.152,0.195 -1.209,5.859 c -0.07,0.348 0.027,0.515 0.262,0.515 0.211,0 0.488,-0.153 0.865,-0.459 l 0.07,0.111 z m -1.533,-5.594 c -0.416,-0.251 -0.834,-0.376 -1.264,-0.376 -1.352,0 -2.367,1.197 -2.813,3.271 -0.377,1.879 0.041,3.132 1.098,3.132 0.67,0 1.338,-0.404 1.99,-1.211 l 0.989,-4.816 z"
   id="path61"
   inkscape:connector-curvature="0"
   style="fill:#27160c" />
			</g>
		</g><g
   id="g63"
   transform="matrix(1.1492754,0,0,1.1538185,-5.7461527,1.9185516)"
   style="color:#000000;clip-rule:nonzero;display:inline;overflow:visible;visibility:visible;opacity:1;isolation:auto;mix-blend-mode:normal;color-interpolation:sRGB;color-interpolation-filters:linearRGB;solid-color:#000000;solid-opacity:1;fill:#000000;fill-opacity:1;fill-rule:nonzero;stroke-width:1.06122899;stroke-linecap:butt;stroke-linejoin:miter;stroke-miterlimit:4;stroke-dasharray:none;stroke-dashoffset:0;stroke-opacity:1;color-rendering:auto;image-rendering:auto;shape-rendering:auto;text-rendering:auto;enable-background:accumulate">
			<g
   id="g65"
   style="color:#000000;clip-rule:nonzero;display:inline;overflow:visible;visibility:visible;isolation:auto;mix-blend-mode:normal;color-interpolation:sRGB;color-interpolation-filters:linearRGB;solid-color:#000000;solid-opacity:1;fill:#000000;fill-opacity:1;fill-rule:nonzero;stroke-width:1.06122899;stroke-linecap:butt;stroke-linejoin:miter;stroke-miterlimit:4;stroke-dasharray:none;stroke-dashoffset:0;stroke-opacity:1;color-rendering:auto;image-rendering:auto;shape-rendering:auto;text-rendering:auto;enable-background:accumulate">
				<path
   d="m 22.273,28.733 c 1.619,-1.669 3.699,-2.491 6.295,-2.491 2.594,0 4.674,0.822 6.291,2.491 1.619,1.67 2.414,3.878 2.414,6.652 0,2.801 -0.795,5.01 -2.414,6.679 -1.592,1.644 -3.697,2.466 -6.291,2.466 -2.596,0 -4.699,-0.822 -6.32,-2.466 -1.592,-1.669 -2.387,-3.878 -2.387,-6.679 0,-2.774 0.795,-4.982 2.412,-6.652 z m 1.081,6.679 c 0,2.876 0.463,5.06 1.412,6.523 0.949,1.463 2.209,2.209 3.803,2.209 1.592,0 2.85,-0.745 3.773,-2.209 0.951,-1.464 1.414,-3.647 1.414,-6.523 0,-2.877 -0.463,-5.061 -1.414,-6.55 -0.924,-1.489 -2.182,-2.234 -3.773,-2.234 -1.594,0 -2.854,0.745 -3.803,2.234 -0.949,1.489 -1.412,3.673 -1.412,6.55 z"
   id="path67"
   inkscape:connector-curvature="0"
   style="color:#000000;clip-rule:nonzero;display:inline;overflow:visible;visibility:visible;isolation:auto;mix-blend-mode:normal;color-interpolation:sRGB;color-interpolation-filters:linearRGB;solid-color:#000000;solid-opacity:1;fill:#000000;fill-opacity:1;fill-rule:nonzero;stroke-width:1.06122899;stroke-linecap:butt;stroke-linejoin:miter;stroke-miterlimit:4;stroke-dasharray:none;stroke-dashoffset:0;stroke-opacity:1;color-rendering:auto;image-rendering:auto;shape-rendering:auto;text-rendering:auto;enable-background:accumulate" />
				<path
   d="m 38.521,44.067 1.668,-0.487 0,-16.362 -1.668,-0.515 0,-0.308 6.678,0 0,0.308 -1.668,0.515 0,7.73 8.578,0 0,-7.73 -1.67,-0.515 0,-0.308 6.678,0 0,0.308 -1.668,0.515 0,16.362 1.668,0.487 0,0.309 -6.678,0 0,-0.309 1.67,-0.487 0,-8.065 -8.578,0 0,8.065 1.668,0.487 0,0.309 -6.678,0 0,-0.309 z"
   id="path69"
   inkscape:connector-curvature="0"
   style="color:#000000;clip-rule:nonzero;display:inline;overflow:visible;visibility:visible;isolation:auto;mix-blend-mode:normal;color-interpolation:sRGB;color-interpolation-filters:linearRGB;solid-color:#000000;solid-opacity:1;fill:#000000;fill-opacity:1;fill-rule:nonzero;stroke-width:1.06122899;stroke-linecap:butt;stroke-linejoin:miter;stroke-miterlimit:4;stroke-dasharray:none;stroke-dashoffset:0;stroke-opacity:1;color-rendering:auto;image-rendering:auto;shape-rendering:auto;text-rendering:auto;enable-background:accumulate" />
				<path
   d="m 64.709,27.064 -1.67,-0.411 0,-0.257 13.844,0 0,0.257 -1.668,0.411 0,16.516 1.668,0.487 0,0.309 -6.678,0 0,-0.309 1.67,-0.487 0,-16.62 -6.498,0 -1.387,13.665 c -0.283,2.594 -1.232,3.879 -2.904,3.879 -1.23,0 -2.387,-0.616 -2.387,-2.055 0,-1.054 0.668,-1.695 1.617,-1.695 1.029,0 1.67,0.642 1.67,1.771 l 0,0.797 c 0.053,0.025 0.129,0.052 0.23,0.052 0.438,0 0.873,-1.028 1.08,-2.672 l 1.413,-13.638 z"
   id="path71"
   inkscape:connector-curvature="0"
   style="color:#000000;clip-rule:nonzero;display:inline;overflow:visible;visibility:visible;isolation:auto;mix-blend-mode:normal;color-interpolation:sRGB;color-interpolation-filters:linearRGB;solid-color:#000000;solid-opacity:1;fill:#000000;fill-opacity:1;fill-rule:nonzero;stroke-width:1.06122899;stroke-linecap:butt;stroke-linejoin:miter;stroke-miterlimit:4;stroke-dasharray:none;stroke-dashoffset:0;stroke-opacity:1;color-rendering:auto;image-rendering:auto;shape-rendering:auto;text-rendering:auto;enable-background:accumulate" />
				<path
   d="m 88.67,26.396 7.27,17.184 1.643,0.487 0,0.309 -6.754,0 0,-0.309 1.668,-0.487 -2.08,-5.034 -7.447,0 -2.184,5.034 2.285,0.487 0,0.309 -4.701,0 0,-0.309 1.799,-0.487 7.525,-17.184 0.976,0 z m -1.9,3.364 -3.572,8.22 6.963,0 -3.391,-8.22 z"
   id="path73"
   inkscape:connector-curvature="0"
   style="color:#000000;clip-rule:nonzero;display:inline;overflow:visible;visibility:visible;isolation:auto;mix-blend-mode:normal;color-interpolation:sRGB;color-interpolation-filters:linearRGB;solid-color:#000000;solid-opacity:1;fill:#000000;fill-opacity:1;fill-rule:nonzero;stroke-width:1.06122899;stroke-linecap:butt;stroke-linejoin:miter;stroke-miterlimit:4;stroke-dasharray:none;stroke-dashoffset:0;stroke-opacity:1;color-rendering:auto;image-rendering:auto;shape-rendering:auto;text-rendering:auto;enable-background:accumulate" />
				<path
   d="m 99.08,44.067 1.672,-0.487 0,-16.362 -1.672,-0.515 0,-0.308 6.682,0 0,0.308 -1.672,0.515 0,14.434 8.58,-14.049 0,-0.385 -1.67,-0.514 0,-0.308 6.678,0 0,0.308 -1.67,0.515 0,16.361 1.67,0.487 0,0.309 -6.678,0 0,-0.309 1.67,-0.487 0,-14.538 -8.58,14.075 0,0.463 1.672,0.487 0,0.309 -6.682,0 0,-0.309 z m 10.738,-21.318 c 0,-0.925 0.592,-1.541 1.438,-1.541 0.898,0 1.465,0.591 1.465,1.413 0,0.796 -0.465,1.387 -1.387,1.797 -0.898,0.411 -1.9,0.617 -2.953,0.617 -1.08,0 -2.082,-0.206 -2.982,-0.617 -0.896,-0.41 -1.359,-1.027 -1.359,-1.823 -0.18,-1.797 3.057,-1.875 2.902,0.154 l 0,1.617 c 0.461,0.18 0.949,0.258 1.439,0.258 0.461,0 0.949,-0.078 1.438,-0.258 l 0,-1.617 z"
   id="path75"
   inkscape:connector-curvature="0"
   style="color:#000000;clip-rule:nonzero;display:inline;overflow:visible;visibility:visible;isolation:auto;mix-blend-mode:normal;color-interpolation:sRGB;color-interpolation-filters:linearRGB;solid-color:#000000;solid-opacity:1;fill:#000000;fill-opacity:1;fill-rule:nonzero;stroke-width:1.06122899;stroke-linecap:butt;stroke-linejoin:miter;stroke-miterlimit:4;stroke-dasharray:none;stroke-dashoffset:0;stroke-opacity:1;color-rendering:auto;image-rendering:auto;shape-rendering:auto;text-rendering:auto;enable-background:accumulate" />
				<path
   d="m 119.299,44.067 1.672,-0.487 0,-16.362 -1.672,-0.515 0,-0.308 6.682,0 0,0.308 -1.672,0.515 0,7.73 8.58,0 0,-7.73 -1.668,-0.515 0,-0.308 6.678,0 0,0.308 -1.672,0.515 0,16.362 1.672,0.487 0,0.309 -6.678,0 0,-0.309 1.668,-0.487 0,-8.065 -8.58,0 0,8.065 1.672,0.487 0,0.309 -6.682,0 0,-0.309 z"
   id="path77"
   inkscape:connector-curvature="0"
   style="color:#000000;clip-rule:nonzero;display:inline;overflow:visible;visibility:visible;isolation:auto;mix-blend-mode:normal;color-interpolation:sRGB;color-interpolation-filters:linearRGB;solid-color:#000000;solid-opacity:1;fill:#000000;fill-opacity:1;fill-rule:nonzero;stroke-width:1.06122899;stroke-linecap:butt;stroke-linejoin:miter;stroke-miterlimit:4;stroke-dasharray:none;stroke-dashoffset:0;stroke-opacity:1;color-rendering:auto;image-rendering:auto;shape-rendering:auto;text-rendering:auto;enable-background:accumulate" />
			</g>
			<g
   id="g79"
   style="color:#000000;clip-rule:nonzero;display:inline;overflow:visible;visibility:visible;isolation:auto;mix-blend-mode:normal;color-interpolation:sRGB;color-interpolation-filters:linearRGB;solid-color:#000000;solid-opacity:1;fill:#000000;fill-opacity:1;fill-rule:nonzero;stroke-width:1.06122899;stroke-linecap:butt;stroke-linejoin:miter;stroke-miterlimit:4;stroke-dasharray:none;stroke-dashoffset:0;stroke-opacity:1;color-rendering:auto;image-rendering:auto;shape-rendering:auto;text-rendering:auto;enable-background:accumulate">
				<path
   d="m 29.361,60.405 c -0.35,0.348 -0.834,0.528 -1.49,0.528 -1.166,0 -1.695,-0.64 -1.986,-1.987 L 25.608,57.638 C 25.371,56.513 24.857,56 23.646,56 l -0.957,0 0,4.419 0.904,0.265 0,0.166 -3.602,0 0,-0.166 0.904,-0.265 0,-8.854 -0.904,-0.278 0,-0.167 3.602,0 0,0.167 -0.904,0.278 0,4.142 c 1.18,0 1.916,-0.556 2.223,-1.654 l 0.252,-1.015 c 0.346,-1.278 0.832,-2.001 1.943,-2.001 0.793,0 1.377,0.375 1.377,1.112 0,0.598 -0.334,0.917 -0.889,0.917 -0.559,0 -0.891,-0.361 -0.891,-0.959 l 0,-0.542 c -0.068,-0.042 -0.152,-0.056 -0.223,-0.056 -0.404,0 -0.736,0.5 -1,1.515 l -0.252,1.028 c -0.207,0.82 -0.625,1.377 -1.223,1.668 l 0.279,0 c 1.848,0 2.75,0.529 3.043,1.863 l 0.293,1.265 c 0.264,1.167 0.5,1.654 1.016,1.654 0.178,0 0.387,-0.069 0.596,-0.223 l 0.128,0.126 z"
   id="path81"
   inkscape:connector-curvature="0"
   style="color:#000000;clip-rule:nonzero;display:inline;overflow:visible;visibility:visible;isolation:auto;mix-blend-mode:normal;color-interpolation:sRGB;color-interpolation-filters:linearRGB;solid-color:#000000;solid-opacity:1;fill:#000000;fill-opacity:1;fill-rule:nonzero;stroke-width:1.06122899;stroke-linecap:butt;stroke-linejoin:miter;stroke-miterlimit:4;stroke-dasharray:none;stroke-dashoffset:0;stroke-opacity:1;color-rendering:auto;image-rendering:auto;shape-rendering:auto;text-rendering:auto;enable-background:accumulate" />
				<path
   d="m 30.9,52.384 c 0.877,-0.902 2,-1.348 3.406,-1.348 1.402,0 2.529,0.445 3.404,1.348 0.877,0.904 1.307,2.1 1.307,3.601 0,1.516 -0.43,2.711 -1.307,3.614 -0.861,0.889 -2.002,1.334 -3.404,1.334 -1.406,0 -2.545,-0.445 -3.42,-1.334 -0.861,-0.903 -1.293,-2.099 -1.293,-3.614 0.001,-1.501 0.432,-2.696 1.307,-3.601 z M 31.484,56 c 0,1.556 0.25,2.737 0.764,3.53 0.514,0.792 1.197,1.194 2.059,1.194 0.862,0 1.541,-0.402 2.041,-1.194 0.516,-0.793 0.766,-1.975 0.766,-3.53 0,-1.558 -0.25,-2.739 -0.766,-3.545 -0.5,-0.807 -1.18,-1.209 -2.041,-1.209 -0.861,0 -1.545,0.402 -2.059,1.209 -0.514,0.805 -0.764,1.987 -0.764,3.545 z"
   id="path83"
   inkscape:connector-curvature="0"
   style="color:#000000;clip-rule:nonzero;display:inline;overflow:visible;visibility:visible;isolation:auto;mix-blend-mode:normal;color-interpolation:sRGB;color-interpolation-filters:linearRGB;solid-color:#000000;solid-opacity:1;fill:#000000;fill-opacity:1;fill-rule:nonzero;stroke-width:1.06122899;stroke-linecap:butt;stroke-linejoin:miter;stroke-miterlimit:4;stroke-dasharray:none;stroke-dashoffset:0;stroke-opacity:1;color-rendering:auto;image-rendering:auto;shape-rendering:auto;text-rendering:auto;enable-background:accumulate" />
				<path
   d="m 39.744,60.683 0.904,-0.265 0,-8.854 -0.904,-0.278 0,-0.166 3.615,0 0,0.167 -0.904,0.278 0,4.184 4.641,0 0,-4.184 -0.902,-0.278 0,-0.167 3.613,0 0,0.167 -0.902,0.278 0,8.854 0.902,0.265 0,0.166 -3.613,0 0,-0.166 0.902,-0.265 0,-4.363 -4.641,0 0,4.363 0.904,0.265 0,0.166 -3.615,0 0,-0.167 z"
   id="path85"
   inkscape:connector-curvature="0"
   style="color:#000000;clip-rule:nonzero;display:inline;overflow:visible;visibility:visible;isolation:auto;mix-blend-mode:normal;color-interpolation:sRGB;color-interpolation-filters:linearRGB;solid-color:#000000;solid-opacity:1;fill:#000000;fill-opacity:1;fill-rule:nonzero;stroke-width:1.06122899;stroke-linecap:butt;stroke-linejoin:miter;stroke-miterlimit:4;stroke-dasharray:none;stroke-dashoffset:0;stroke-opacity:1;color-rendering:auto;image-rendering:auto;shape-rendering:auto;text-rendering:auto;enable-background:accumulate" />
				<path
   d="m 59,59.515 c -0.932,0.945 -2.143,1.418 -3.629,1.418 -1.486,0 -2.654,-0.445 -3.531,-1.334 -0.875,-0.89 -1.307,-2.099 -1.307,-3.614 0,-1.515 0.432,-2.711 1.307,-3.601 0.877,-0.902 2.031,-1.348 3.475,-1.348 1.152,0 2.098,0.265 2.82,0.778 l 0.684,-0.361 0.137,0.139 0,2.002 -0.248,0 c -0.223,-0.89 -0.736,-1.543 -1.363,-1.821 -0.611,-0.291 -1.125,-0.389 -1.668,-0.389 -2.057,0 -3.252,1.529 -3.252,4.531 0,2.821 1.168,4.518 3.6,4.518 1.18,0 2.111,-0.362 2.807,-1.084 L 59,59.515 Z"
   id="path87"
   inkscape:connector-curvature="0"
   style="color:#000000;clip-rule:nonzero;display:inline;overflow:visible;visibility:visible;isolation:auto;mix-blend-mode:normal;color-interpolation:sRGB;color-interpolation-filters:linearRGB;solid-color:#000000;solid-opacity:1;fill:#000000;fill-opacity:1;fill-rule:nonzero;stroke-width:1.06122899;stroke-linecap:butt;stroke-linejoin:miter;stroke-miterlimit:4;stroke-dasharray:none;stroke-dashoffset:0;stroke-opacity:1;color-rendering:auto;image-rendering:auto;shape-rendering:auto;text-rendering:auto;enable-background:accumulate" />
				<path
   d="M 60.891,51.565 60,51.287 l 0,-0.167 3.67,0 0,0.167 -0.916,0.278 2.627,5.087 2.738,-5.087 -1.238,-0.278 0,-0.167 2.529,0 0,0.167 -0.957,0.278 -3.613,6.672 c -0.527,0.986 -0.988,1.682 -1.361,2.085 -0.377,0.402 -0.836,0.611 -1.393,0.611 -0.459,0 -0.861,-0.069 -1.207,-0.417 -0.182,-0.181 -0.266,-0.417 -0.266,-0.709 0,-0.57 0.361,-0.931 0.904,-0.931 0.514,0 0.875,0.36 0.875,0.903 l 0,0.667 c 0.057,0.027 0.111,0.041 0.168,0.041 0.568,0 1.139,-0.764 1.861,-2.14 l -3.53,-6.782 z"
   id="path89"
   inkscape:connector-curvature="0"
   style="color:#000000;clip-rule:nonzero;display:inline;overflow:visible;visibility:visible;isolation:auto;mix-blend-mode:normal;color-interpolation:sRGB;color-interpolation-filters:linearRGB;solid-color:#000000;solid-opacity:1;fill:#000000;fill-opacity:1;fill-rule:nonzero;stroke-width:1.06122899;stroke-linecap:butt;stroke-linejoin:miter;stroke-miterlimit:4;stroke-dasharray:none;stroke-dashoffset:0;stroke-opacity:1;color-rendering:auto;image-rendering:auto;shape-rendering:auto;text-rendering:auto;enable-background:accumulate" />
				<path
   d="m 72.43,51.482 -0.904,-0.224 0,-0.138 7.492,0 0,0.139 -0.904,0.224 0,8.937 0.904,0.265 0,0.166 -3.613,0 0,-0.166 0.904,-0.265 0,-8.992 -3.518,0 -0.75,7.394 c -0.152,1.404 -0.668,2.1 -1.572,2.1 -0.666,0 -1.291,-0.334 -1.291,-1.112 0,-0.57 0.359,-0.917 0.875,-0.917 0.557,0 0.904,0.347 0.904,0.959 l 0,0.431 c 0.027,0.014 0.066,0.027 0.125,0.027 0.234,0 0.473,-0.556 0.584,-1.445 l 0.764,-7.383 z"
   id="path91"
   inkscape:connector-curvature="0"
   style="color:#000000;clip-rule:nonzero;display:inline;overflow:visible;visibility:visible;isolation:auto;mix-blend-mode:normal;color-interpolation:sRGB;color-interpolation-filters:linearRGB;solid-color:#000000;solid-opacity:1;fill:#000000;fill-opacity:1;fill-rule:nonzero;stroke-width:1.06122899;stroke-linecap:butt;stroke-linejoin:miter;stroke-miterlimit:4;stroke-dasharray:none;stroke-dashoffset:0;stroke-opacity:1;color-rendering:auto;image-rendering:auto;shape-rendering:auto;text-rendering:auto;enable-background:accumulate" />
				<path
   d="m 82.648,51.565 0,3.905 1.738,0 c 1.127,0 2.029,0.236 2.711,0.723 0.68,0.487 1.029,1.141 1.029,1.961 0,0.833 -0.35,1.486 -1.029,1.973 -0.682,0.487 -1.584,0.723 -2.711,0.723 l -4.445,0 0,-0.138 0.902,-0.224 0,-8.923 -0.902,-0.278 0,-0.167 3.611,0 0,0.167 -0.904,0.278 z m 0,8.978 1.42,0 c 1.348,0 2.223,-0.819 2.223,-2.39 0,-1.571 -0.875,-2.378 -2.223,-2.378 l -1.42,0 0,4.768 z"
   id="path93"
   inkscape:connector-curvature="0"
   style="color:#000000;clip-rule:nonzero;display:inline;overflow:visible;visibility:visible;isolation:auto;mix-blend-mode:normal;color-interpolation:sRGB;color-interpolation-filters:linearRGB;solid-color:#000000;solid-opacity:1;fill:#000000;fill-opacity:1;fill-rule:nonzero;stroke-width:1.06122899;stroke-linecap:butt;stroke-linejoin:miter;stroke-miterlimit:4;stroke-dasharray:none;stroke-dashoffset:0;stroke-opacity:1;color-rendering:auto;image-rendering:auto;shape-rendering:auto;text-rendering:auto;enable-background:accumulate" />
				<path
   d="m 95.439,51.426 -2.445,0 0,8.992 0.904,0.265 0,0.166 -3.602,0 0,-0.166 0.904,-0.265 0,-8.992 -2.445,0 -0.725,1.473 -0.236,0 0,-1.779 8.606,0 0,1.779 -0.238,0 -0.723,-1.473 z"
   id="path95"
   inkscape:connector-curvature="0"
   style="color:#000000;clip-rule:nonzero;display:inline;overflow:visible;visibility:visible;isolation:auto;mix-blend-mode:normal;color-interpolation:sRGB;color-interpolation-filters:linearRGB;solid-color:#000000;solid-opacity:1;fill:#000000;fill-opacity:1;fill-rule:nonzero;stroke-width:1.06122899;stroke-linecap:butt;stroke-linejoin:miter;stroke-miterlimit:4;stroke-dasharray:none;stroke-dashoffset:0;stroke-opacity:1;color-rendering:auto;image-rendering:auto;shape-rendering:auto;text-rendering:auto;enable-background:accumulate" />
				<path
   d="m 101.578,51.12 3.934,9.299 0.891,0.265 0,0.166 -3.656,0 0,-0.166 0.904,-0.265 -1.127,-2.724 -4.031,0 -1.182,2.724 1.238,0.265 0,0.166 -2.543,0 0,-0.166 0.971,-0.265 4.074,-9.299 0.527,0 z m -1.029,1.821 -1.93,4.448 3.766,0 -1.836,-4.448 z"
   id="path97"
   inkscape:connector-curvature="0"
   style="color:#000000;clip-rule:nonzero;display:inline;overflow:visible;visibility:visible;isolation:auto;mix-blend-mode:normal;color-interpolation:sRGB;color-interpolation-filters:linearRGB;solid-color:#000000;solid-opacity:1;fill:#000000;fill-opacity:1;fill-rule:nonzero;stroke-width:1.06122899;stroke-linecap:butt;stroke-linejoin:miter;stroke-miterlimit:4;stroke-dasharray:none;stroke-dashoffset:0;stroke-opacity:1;color-rendering:auto;image-rendering:auto;shape-rendering:auto;text-rendering:auto;enable-background:accumulate" />
				<path
   d="m 116.092,60.849 -8.838,0 0,-0.138 0.902,-0.224 0,-8.923 -0.902,-0.278 0,-0.166 3.611,0 0,0.167 -0.904,0.278 0,8.979 4.463,0 0,-8.979 -0.904,-0.278 0,-0.167 3.615,0 0,0.167 -0.904,0.278 0,8.979 1.016,0 0,2.447 -0.361,0 -0.794,-2.142 z"
   id="path99"
   inkscape:connector-curvature="0"
   style="color:#000000;clip-rule:nonzero;display:inline;overflow:visible;visibility:visible;isolation:auto;mix-blend-mode:normal;color-interpolation:sRGB;color-interpolation-filters:linearRGB;solid-color:#000000;solid-opacity:1;fill:#000000;fill-opacity:1;fill-rule:nonzero;stroke-width:1.06122899;stroke-linecap:butt;stroke-linejoin:miter;stroke-miterlimit:4;stroke-dasharray:none;stroke-dashoffset:0;stroke-opacity:1;color-rendering:auto;image-rendering:auto;shape-rendering:auto;text-rendering:auto;enable-background:accumulate" />
				<path
   d="m 118.182,60.683 0.902,-0.265 0,-8.854 -0.902,-0.278 0,-0.166 3.613,0 0,0.167 -0.904,0.278 0,7.812 4.645,-7.604 0,-0.208 -0.904,-0.278 0,-0.167 3.613,0 0,0.167 -0.902,0.278 0,8.854 0.902,0.265 0,0.166 -3.613,0 0,-0.166 0.904,-0.265 0,-7.866 -4.645,7.617 0,0.249 0.904,0.265 0,0.166 -3.613,0 0,-0.167 z"
   id="path101"
   inkscape:connector-curvature="0"
   style="color:#000000;clip-rule:nonzero;display:inline;overflow:visible;visibility:visible;isolation:auto;mix-blend-mode:normal;color-interpolation:sRGB;color-interpolation-filters:linearRGB;solid-color:#000000;solid-opacity:1;fill:#000000;fill-opacity:1;fill-rule:nonzero;stroke-width:1.06122899;stroke-linecap:butt;stroke-linejoin:miter;stroke-miterlimit:4;stroke-dasharray:none;stroke-dashoffset:0;stroke-opacity:1;color-rendering:auto;image-rendering:auto;shape-rendering:auto;text-rendering:auto;enable-background:accumulate" />
				<path
   d="m 129.256,60.28 c 0.195,0.153 0.391,0.223 0.582,0.223 0.488,0 0.684,-0.432 0.945,-1.529 l 0.252,-1.028 c 0.264,-1.07 0.777,-1.626 1.766,-1.835 -1.668,-0.264 -2.656,-1.182 -2.656,-2.474 0,-0.778 0.334,-1.391 0.988,-1.835 0.652,-0.459 1.527,-0.682 2.627,-0.682 l 4.379,0 0,0.139 -0.904,0.224 0,8.937 0.904,0.265 0,0.166 -3.713,0 0,-0.166 1.002,-0.265 0,-4.183 -0.793,0 c -1.154,0 -1.625,0.541 -1.891,1.765 l -0.223,1.056 c -0.266,1.224 -0.834,1.877 -1.959,1.877 -0.627,0 -1.111,-0.181 -1.432,-0.528 l 0.126,-0.127 z m 6.172,-8.854 -1.473,0 c -1.211,0 -1.975,0.75 -1.975,2.251 0,1.516 0.764,2.252 1.975,2.252 l 1.473,0 0,-4.503 z"
   id="path103"
   inkscape:connector-curvature="0"
   style="color:#000000;clip-rule:nonzero;display:inline;overflow:visible;visibility:visible;isolation:auto;mix-blend-mode:normal;color-interpolation:sRGB;color-interpolation-filters:linearRGB;solid-color:#000000;solid-opacity:1;fill:#000000;fill-opacity:1;fill-rule:nonzero;stroke-width:1.06122899;stroke-linecap:butt;stroke-linejoin:miter;stroke-miterlimit:4;stroke-dasharray:none;stroke-dashoffset:0;stroke-opacity:1;color-rendering:auto;image-rendering:auto;shape-rendering:auto;text-rendering:auto;enable-background:accumulate" />
			</g>
		</g><polygon
   style="fill:#27160c"
   id="polygon105"
   points="152.971,116.663 146.047,129.366 146.188,104.215 "
   transform="matrix(1.0851266,0,0,1.0851266,-4.2360463,2.9408766)" />
</svg>